{"asset":{"version":"2.0","generator":"Babylon2Gltf2017","copyright":"2017 (c) BabylonJS"},"extensionsUsed":[],"extensionsRequired":[],"scene":0,"scenes":[{"nodes":[0]}],"nodes":[{"mesh":0,"translation":[0.0,0.0,0.0],"rotation":[-0.7071068,0.0,0.0,-0.7071067],"scale":[1.0,1.0,1.0],"name":"FireworkStart"}],"meshes":[{"primitives":[{"attributes":{"POSITION":1,"NORMAL":2,"TEXCOORD_0":3},"indices":0,"mode":4,"material":0}],"name":"FireworkStart"}],"accessors":[{"bufferView":0,"componentType":5123,"count":132,"type":"SCALAR","name":"accessorIndices"},{"bufferView":1,"componentType":5126,"count":132,"max":[45.46065,39.37008,0.0],"min":[-45.46065,-39.37008,-314.960632],"type":"VEC3","name":"accessorPositions"},{"bufferView":1,"byteOffset":1584,"componentType":5126,"count":132,"type":"VEC3","name":"accessorNormals"},{"bufferView":2,"componentType":5126,"count":132,"type":"VEC2","name":"accessorUVs"}],"bufferViews":[{"buffer":0,"byteLength":264,"name":"bufferViewScalar"},{"buffer":0,"byteOffset":264,"byteLength":3168,"byteStride":12,"name":"bufferViewFloatVec3"},{"buffer":0,"byteOffset":3432,"byteLength":1056,"byteStride":8,"name":"bufferViewFloatVec2"}],"buffers":[{"uri":"FireworksStart.bin","byteLength":4488}],"materials":[{"pbrMetallicRoughness":{"baseColorFactor":[0.2901961,0.3921569,0.7686275,0.7],"metallicFactor":0.0,"roughnessFactor":0.546446562},"emissiveFactor":[0.0,0.0,0.0],"alphaMode":"BLEND","name":"Smoke_mat"}]}