{"asset":{"version":"2.0","generator":"Babylon2Gltf2017","copyright":"2017 (c) BabylonJS"},"extensionsUsed":[],"extensionsRequired":[],"scene":0,"scenes":[{"nodes":[0]}],"nodes":[{"mesh":0,"translation":[0.0,106.550491,4.65747E-06],"rotation":[-0.7071068,0.0,0.0,-0.7071067],"scale":[1.0,1.0,1.0],"name":"Hamsterball"}],"meshes":[{"primitives":[{"attributes":{"POSITION":1,"NORMAL":2,"TEXCOORD_0":3},"indices":0,"mode":4,"material":0}],"name":"Hamsterball"}],"accessors":[{"bufferView":0,"componentType":5123,"count":1104,"type":"SCALAR","name":"accessorIndices"},{"bufferView":1,"componentType":5126,"count":1104,"max":[112.198013,111.483688,102.335686],"min":[-112.198013,-111.483681,-111.840866],"type":"VEC3","name":"accessorPositions"},{"bufferView":1,"byteOffset":13248,"componentType":5126,"count":1104,"type":"VEC3","name":"accessorNormals"},{"bufferView":2,"componentType":5126,"count":1104,"type":"VEC2","name":"accessorUVs"}],"bufferViews":[{"buffer":0,"byteLength":2208,"name":"bufferViewScalar"},{"buffer":0,"byteOffset":2208,"byteLength":26496,"byteStride":12,"name":"bufferViewFloatVec3"},{"buffer":0,"byteOffset":28704,"byteLength":8832,"byteStride":8,"name":"bufferViewFloatVec2"}],"buffers":[{"uri":"Hamsterball.bin","byteLength":37536}],"materials":[{"pbrMetallicRoughness":{"baseColorFactor":[0.2901961,0.3921569,0.7686275,0.7],"metallicFactor":0.0,"roughnessFactor":0.546446562},"emissiveFactor":[0.0,0.0,0.0],"alphaMode":"BLEND","name":"Smoke_mat"}]}