{"asset":{"version":"2.0","generator":"Babylon2Gltf2017","copyright":"2017 (c) BabylonJS"},"extensionsUsed":[],"extensionsRequired":[],"scene":0,"scenes":[{"nodes":[0,1]}],"nodes":[{"mesh":0,"translation":[-6.94835234,118.478607,-0.781264067],"rotation":[1.0,0.0,0.0,-1.62920685E-07],"scale":[1.0,1.0,1.0],"name":"StartPost"},{"camera":0,"translation":[-162.920364,241.713684,277.810669],"rotation":[-0.489841282,0.220022023,-0.1292855,-0.8336253],"scale":[1.0,1.0,1.0],"name":"VRayDomeCamera001"}],"cameras":[{"perspective":{"yfov":0.6024157,"zfar":10000.0,"znear":0.1},"type":"perspective","name":"VRayDomeCamera001"}],"meshes":[{"primitives":[{"attributes":{"POSITION":1,"NORMAL":2,"TEXCOORD_0":3},"indices":0,"mode":4,"material":0},{"attributes":{"POSITION":5,"NORMAL":6,"TEXCOORD_0":7},"indices":4,"mode":4,"material":1},{"attributes":{"POSITION":9,"NORMAL":10,"TEXCOORD_0":11},"indices":8,"mode":4,"material":2},{"attributes":{"POSITION":13,"NORMAL":14,"TEXCOORD_0":15},"indices":12,"mode":4,"material":3}],"name":"StartPost"}],"accessors":[{"bufferView":0,"componentType":5123,"count":75,"type":"SCALAR","name":"accessorIndices"},{"bufferView":1,"componentType":5126,"count":75,"max":[39.37008,118.110245,39.37008],"min":[-39.37008,10.2140961,-39.37008],"type":"VEC3","name":"accessorPositions"},{"bufferView":1,"byteOffset":900,"componentType":5126,"count":75,"type":"VEC3","name":"accessorNormals"},{"bufferView":2,"componentType":5126,"count":75,"type":"VEC2","name":"accessorUVs"},{"bufferView":0,"byteOffset":152,"componentType":5123,"count":45,"type":"SCALAR","name":"accessorIndices"},{"bufferView":1,"byteOffset":1800,"componentType":5126,"count":45,"max":[35.43307,36.67305,35.43307],"min":[-35.43307,0.0,-35.96053],"type":"VEC3","name":"accessorPositions"},{"bufferView":1,"byteOffset":2340,"componentType":5126,"count":45,"type":"VEC3","name":"accessorNormals"},{"bufferView":2,"byteOffset":600,"componentType":5126,"count":45,"type":"VEC2","name":"accessorUVs"},{"bufferView":0,"byteOffset":244,"componentType":5123,"count":78,"type":"SCALAR","name":"accessorIndices"},{"bufferView":1,"byteOffset":2880,"componentType":5126,"count":78,"max":[39.37008,118.110245,39.37008],"min":[-39.37008,0.0,-39.37008],"type":"VEC3","name":"accessorPositions"},{"bufferView":1,"byteOffset":3816,"componentType":5126,"count":78,"type":"VEC3","name":"accessorNormals"},{"bufferView":2,"byteOffset":960,"componentType":5126,"count":78,"type":"VEC2","name":"accessorUVs"},{"bufferView":0,"byteOffset":400,"componentType":5123,"count":30,"type":"SCALAR","name":"accessorIndices"},{"bufferView":1,"byteOffset":4752,"componentType":5126,"count":30,"max":[39.37008,118.110245,39.37008],"min":[-39.37008,3.937004,-39.37008],"type":"VEC3","name":"accessorPositions"},{"bufferView":1,"byteOffset":5112,"componentType":5126,"count":30,"type":"VEC3","name":"accessorNormals"},{"bufferView":2,"byteOffset":1584,"componentType":5126,"count":30,"type":"VEC2","name":"accessorUVs"}],"bufferViews":[{"buffer":0,"byteLength":460,"name":"bufferViewScalar"},{"buffer":0,"byteOffset":460,"byteLength":5472,"byteStride":12,"name":"bufferViewFloatVec3"},{"buffer":0,"byteOffset":5932,"byteLength":1824,"byteStride":8,"name":"bufferViewFloatVec2"}],"buffers":[{"uri":"StartPost.bin","byteLength":7756}],"materials":[{"pbrMetallicRoughness":{"baseColorFactor":[1.0,0.73619163,0.73619163,1.0],"metallicFactor":0.893709362,"roughnessFactor":0.65},"emissiveFactor":[0.0,0.0,0.0],"alphaMode":"OPAQUE","name":"Material #36"},{"pbrMetallicRoughness":{"baseColorFactor":[0.9426368,0.9426368,0.9426368,1.0],"metallicFactor":0.952764332,"roughnessFactor":0.76},"emissiveFactor":[0.0,0.0,0.0],"alphaMode":"OPAQUE","name":"Material #37"},{"pbrMetallicRoughness":{"baseColorFactor":[0.863999963,0.863999963,0.863999963,1.0],"metallicFactor":1.0,"roughnessFactor":0.52},"emissiveFactor":[0.0,0.0,0.0],"alphaMode":"OPAQUE","name":"Material #38"},{"pbrMetallicRoughness":{"baseColorFactor":[0.8567944,0.8567944,0.8567944,1.0],"metallicFactor":0.9867834,"roughnessFactor":0.86},"emissiveFactor":[0.0,0.0,0.0],"alphaMode":"OPAQUE","name":"Material #39"}]}