{"asset":{"version":"2.0","generator":"Babylon2Gltf2017","copyright":"2017 (c) BabylonJS"},"extensionsUsed":[],"extensionsRequired":[],"scene":0,"scenes":[{"nodes":[0]}],"nodes":[{"mesh":0,"translation":[0.0,0.0,0.0],"rotation":[-0.7071068,0.0,0.0,-0.7071067],"scale":[1.0,1.0,1.0],"name":"TrainPart"}],"meshes":[{"primitives":[{"attributes":{"POSITION":1,"NORMAL":2,"TEXCOORD_0":3},"indices":0,"mode":4,"material":0},{"attributes":{"POSITION":5,"NORMAL":6,"TEXCOORD_0":7},"indices":4,"mode":4,"material":1},{"attributes":{"POSITION":9,"NORMAL":10,"TEXCOORD_0":11},"indices":8,"mode":4,"material":2}],"name":"TrainPart"}],"accessors":[{"bufferView":0,"componentType":5123,"count":5031,"type":"SCALAR","name":"accessorIndices"},{"bufferView":1,"componentType":5126,"count":5031,"max":[1102.36218,1102.36218,0.0],"min":[-1102.36218,-1087.16565,-1401.01526],"type":"VEC3","name":"accessorPositions"},{"bufferView":1,"byteOffset":60372,"componentType":5126,"count":5031,"type":"VEC3","name":"accessorNormals"},{"bufferView":2,"componentType":5126,"count":5031,"type":"VEC2","name":"accessorUVs"},{"bufferView":0,"byteOffset":10064,"componentType":5123,"count":10053,"type":"SCALAR","name":"accessorIndices"},{"bufferView":1,"byteOffset":120744,"componentType":5126,"count":10053,"max":[1141.7323,1141.7323,-39.37008],"min":[-1141.7323,-1141.7323,-1515.748],"type":"VEC3","name":"accessorPositions"},{"bufferView":1,"byteOffset":241380,"componentType":5126,"count":10053,"type":"VEC3","name":"accessorNormals"},{"bufferView":2,"byteOffset":40248,"componentType":5126,"count":10053,"type":"VEC2","name":"accessorUVs"},{"bufferView":0,"byteOffset":30172,"componentType":5123,"count":1560,"type":"SCALAR","name":"accessorIndices"},{"bufferView":1,"byteOffset":362016,"componentType":5126,"count":1560,"max":[196.850388,196.850388,196.850388],"min":[-196.850388,-196.850388,0.0],"type":"VEC3","name":"accessorPositions"},{"bufferView":1,"byteOffset":380736,"componentType":5126,"count":1560,"type":"VEC3","name":"accessorNormals"},{"bufferView":2,"byteOffset":120672,"componentType":5126,"count":1560,"type":"VEC2","name":"accessorUVs"}],"bufferViews":[{"buffer":0,"byteLength":33292,"name":"bufferViewScalar"},{"buffer":0,"byteOffset":33292,"byteLength":399456,"byteStride":12,"name":"bufferViewFloatVec3"},{"buffer":0,"byteOffset":432748,"byteLength":133152,"byteStride":8,"name":"bufferViewFloatVec2"}],"buffers":[{"uri":"test.bin","byteLength":565900}],"materials":[{"pbrMetallicRoughness":{"baseColorFactor":[0.09411766,0.0,0.498039246,1.0],"metallicFactor":0.0,"roughnessFactor":0.0},"emissiveFactor":[0.0,0.0,0.0],"alphaMode":"OPAQUE","name":"Material #59"},{"pbrMetallicRoughness":{"baseColorFactor":[1.0,0.0,0.0,1.0],"metallicFactor":0.0,"roughnessFactor":0.0},"emissiveFactor":[0.0,0.0,0.0],"alphaMode":"OPAQUE","name":"Material #60"},{"pbrMetallicRoughness":{"baseColorFactor":[0.9921569,0.9176471,0.08627451,1.0],"metallicFactor":0.0,"roughnessFactor":0.0},"emissiveFactor":[0.0,0.0,0.0],"alphaMode":"OPAQUE","name":"Material #61"}]}