{"asset":{"version":"2.0","generator":"Babylon2Gltf2017","copyright":"2017 (c) BabylonJS"},"extensionsUsed":[],"extensionsRequired":[],"scene":0,"scenes":[{"nodes":[0,1,2,3]}],"nodes":[{"mesh":0,"translation":[4.53902626,0.0,-11.1014385],"rotation":[0.0,0.0,0.0,-1.0],"scale":[1.0,1.0,1.0],"name":"BaseTerrain"},{"mesh":1,"translation":[0.0,0.0,0.0],"rotation":[-0.7071068,0.0,0.0,-0.7071067],"scale":[1.0,1.0,1.0],"name":"terrain"},{"mesh":2,"translation":[0.0,0.0,0.0],"rotation":[-0.7071068,0.0,0.0,-0.7071067],"scale":[1.0,1.0,1.0],"name":"terrain"},{"mesh":3,"translation":[0.0,0.0,0.0],"rotation":[-0.7071068,0.0,0.0,-0.7071067],"scale":[1.0,1.0,1.0],"name":"terrain"}],"meshes":[{"primitives":[{"attributes":{"POSITION":1,"NORMAL":2,"TEXCOORD_0":3},"indices":0,"mode":4,"material":0}],"name":"BaseTerrain"},{"primitives":[{"attributes":{"POSITION":5,"NORMAL":6,"TEXCOORD_0":7},"indices":4,"mode":4,"material":1}],"name":"terrain"},{"primitives":[{"attributes":{"POSITION":9,"NORMAL":10,"TEXCOORD_0":11},"indices":8,"mode":4,"material":2}],"name":"terrain"},{"primitives":[{"attributes":{"POSITION":13,"NORMAL":14,"TEXCOORD_0":15},"indices":12,"mode":4,"material":2}],"name":"terrain"}],"accessors":[{"bufferView":0,"componentType":5123,"count":5400,"type":"SCALAR","name":"accessorIndices"},{"bufferView":1,"componentType":5126,"count":5400,"max":[9842.52051,6068.86133,9842.52051],"min":[-9842.52,0.0,-9842.52],"type":"VEC3","name":"accessorPositions"},{"bufferView":1,"byteOffset":64800,"componentType":5126,"count":5400,"type":"VEC3","name":"accessorNormals"},{"bufferView":2,"componentType":5126,"count":5400,"type":"VEC2","name":"accessorUVs"},{"bufferView":0,"byteOffset":10800,"componentType":5123,"count":4092,"type":"SCALAR","name":"accessorIndices"},{"bufferView":1,"byteOffset":129600,"componentType":5126,"count":4092,"max":[3861.56226,7425.197,-24.936657],"min":[-7307.08643,-5952.756,-4068.44653],"type":"VEC3","name":"accessorPositions"},{"bufferView":1,"byteOffset":178704,"componentType":5126,"count":4092,"type":"VEC3","name":"accessorNormals"},{"bufferView":2,"byteOffset":43200,"componentType":5126,"count":4092,"type":"VEC2","name":"accessorUVs"},{"bufferView":0,"byteOffset":18984,"componentType":5123,"count":36,"type":"SCALAR","name":"accessorIndices"},{"bufferView":1,"byteOffset":227808,"componentType":5126,"count":36,"max":[-7137.79541,6358.68066,-24.936657],"min":[-7255.90527,6279.94043,-3177.14941],"type":"VEC3","name":"accessorPositions"},{"bufferView":1,"byteOffset":228240,"componentType":5126,"count":36,"type":"VEC3","name":"accessorNormals"},{"bufferView":2,"byteOffset":75936,"componentType":5126,"count":36,"type":"VEC2","name":"accessorUVs"},{"bufferView":0,"byteOffset":19056,"componentType":5123,"count":36,"type":"SCALAR","name":"accessorIndices"},{"bufferView":1,"byteOffset":228672,"componentType":5126,"count":36,"max":[-7137.79541,-531.0831,-24.936657],"min":[-7255.90527,-609.8233,-3177.14941],"type":"VEC3","name":"accessorPositions"},{"bufferView":1,"byteOffset":229104,"componentType":5126,"count":36,"type":"VEC3","name":"accessorNormals"},{"bufferView":2,"byteOffset":76224,"componentType":5126,"count":36,"type":"VEC2","name":"accessorUVs"}],"bufferViews":[{"buffer":0,"byteLength":19128,"name":"bufferViewScalar"},{"buffer":0,"byteOffset":19128,"byteLength":229536,"byteStride":12,"name":"bufferViewFloatVec3"},{"buffer":0,"byteOffset":248664,"byteLength":76512,"byteStride":8,"name":"bufferViewFloatVec2"}],"buffers":[{"uri":"test2.bin","byteLength":325176}],"materials":[{"pbrMetallicRoughness":{"baseColorFactor":[0.196078449,0.5058824,0.196078449,1.0],"metallicFactor":0.0,"roughnessFactor":0.630481},"emissiveFactor":[0.0,0.0,0.0],"alphaMode":"OPAQUE","name":"Material #62"},{"pbrMetallicRoughness":{"baseColorFactor":[0.7,0.141007185,0.141007185,1.0],"metallicFactor":0.0,"roughnessFactor":0.599999964},"emissiveFactor":[0.0,0.0,0.0],"alphaMode":"OPAQUE","name":"Wall Paint"},{"pbrMetallicRoughness":{"baseColorFactor":[0.07058824,0.07058824,0.07058824,1.0],"metallicFactor":0.0,"roughnessFactor":0.630481},"emissiveFactor":[0.0,0.0,0.0],"alphaMode":"OPAQUE","name":"standard"}]}