{"asset":{"version":"2.0","generator":"Babylon2Gltf2017","copyright":"2017 (c) BabylonJS"},"extensionsUsed":[],"extensionsRequired":[],"scene":0,"scenes":[{"nodes":[0,1,2,3,4]}],"nodes":[{"mesh":0,"translation":[4.53902626,0.0,-11.1014385],"rotation":[0.0,0.0,0.0,-1.0],"scale":[1.0,1.0,1.0],"name":"BaseTerrain"},{"mesh":1,"translation":[0.0,0.0,0.0],"rotation":[-0.7071068,0.0,0.0,-0.7071067],"scale":[1.0,1.0,1.0],"name":"terrain"},{"translation":[-1492.75488,0.0,2161.19775],"rotation":[0.0,0.0,0.0,-1.0],"scale":[1.0,1.0,1.0],"name":"TPhotometricLight001.Target"},{"translation":[-362.217773,0.0,1686.32031],"rotation":[0.0,0.0,0.0,-1.0],"scale":[1.0,1.0,1.0],"name":"Camera001.Target"},{"camera":0,"translation":[11142.332,13989.8223,-12607.6279],"rotation":[0.147475585,0.84523195,-0.418441474,0.2978937],"scale":[1.0,1.0,1.0],"name":"Camera001"}],"cameras":[{"perspective":{"yfov":0.6024157,"zfar":10000.0,"znear":0.1},"type":"perspective","name":"Camera001"}],"meshes":[{"primitives":[{"attributes":{"POSITION":1,"NORMAL":2,"TEXCOORD_0":3},"indices":0,"mode":4,"material":0}],"name":"BaseTerrain"},{"primitives":[{"attributes":{"POSITION":5,"NORMAL":6,"TEXCOORD_0":7},"indices":4,"mode":4,"material":1}],"name":"terrain"}],"accessors":[{"bufferView":0,"componentType":5123,"count":5400,"type":"SCALAR","name":"accessorIndices"},{"bufferView":1,"componentType":5126,"count":5400,"max":[9842.52051,6068.86133,9842.52051],"min":[-9842.52,0.0,-9842.52],"type":"VEC3","name":"accessorPositions"},{"bufferView":1,"byteOffset":64800,"componentType":5126,"count":5400,"type":"VEC3","name":"accessorNormals"},{"bufferView":2,"componentType":5126,"count":5400,"type":"VEC2","name":"accessorUVs"},{"bufferView":0,"byteOffset":10800,"componentType":5123,"count":4092,"type":"SCALAR","name":"accessorIndices"},{"bufferView":1,"byteOffset":129600,"componentType":5126,"count":4092,"max":[3861.56226,7425.197,-24.936657],"min":[-7307.08643,-5952.756,-4068.44653],"type":"VEC3","name":"accessorPositions"},{"bufferView":1,"byteOffset":178704,"componentType":5126,"count":4092,"type":"VEC3","name":"accessorNormals"},{"bufferView":2,"byteOffset":43200,"componentType":5126,"count":4092,"type":"VEC2","name":"accessorUVs"}],"bufferViews":[{"buffer":0,"byteLength":18984,"name":"bufferViewScalar"},{"buffer":0,"byteOffset":18984,"byteLength":227808,"byteStride":12,"name":"bufferViewFloatVec3"},{"buffer":0,"byteOffset":246792,"byteLength":75936,"byteStride":8,"name":"bufferViewFloatVec2"}],"buffers":[{"uri":"test.bin","byteLength":322728}],"materials":[{"pbrMetallicRoughness":{"baseColorFactor":[0.196078449,0.5058824,0.196078449,1.0],"metallicFactor":0.0,"roughnessFactor":0.630481},"emissiveFactor":[0.0,0.0,0.0],"alphaMode":"OPAQUE","name":"Material #62"},{"pbrMetallicRoughness":{"baseColorFactor":[0.733813,0.654676259,0.5,1.0],"metallicFactor":0.0,"roughnessFactor":0.546446562},"emissiveFactor":[0.0,0.0,0.0],"alphaMode":"OPAQUE","name":"Standard"}]}