{"asset":{"version":"2.0","generator":"Babylon2Gltf2017","copyright":"2017 (c) BabylonJS"},"extensionsUsed":[],"extensionsRequired":[],"scene":0,"scenes":[{"nodes":[0]}],"nodes":[{"mesh":0,"translation":[0.0,0.0,0.0],"rotation":[-0.7071068,0.0,0.0,-0.7071067],"scale":[1.0,1.0,1.0],"name":"GlassTrainpart"}],"meshes":[{"primitives":[{"attributes":{"POSITION":1,"NORMAL":2,"TEXCOORD_0":3},"indices":0,"mode":4,"material":0}],"name":"GlassTrainpart"}],"accessors":[{"bufferView":0,"componentType":5123,"count":17352,"type":"SCALAR","name":"accessorIndices"},{"bufferView":1,"componentType":5126,"count":17352,"max":[55.11811,55.11811,55.11811],"min":[-55.1076622,-55.11811,-55.11811],"type":"VEC3","name":"accessorPositions"},{"bufferView":1,"byteOffset":208224,"componentType":5126,"count":17352,"type":"VEC3","name":"accessorNormals"},{"bufferView":2,"componentType":5126,"count":17352,"type":"VEC2","name":"accessorUVs"}],"bufferViews":[{"buffer":0,"byteLength":34704,"name":"bufferViewScalar"},{"buffer":0,"byteOffset":34704,"byteLength":416448,"byteStride":12,"name":"bufferViewFloatVec3"},{"buffer":0,"byteOffset":451152,"byteLength":138816,"byteStride":8,"name":"bufferViewFloatVec2"}],"buffers":[{"uri":"trainpart.bin","byteLength":589968}],"materials":[{"pbrMetallicRoughness":{"baseColorFactor":[0.329411775,0.6117647,0.792156935,0.0],"metallicFactor":0.0,"roughnessFactor":0.0},"emissiveFactor":[0.0,0.0,0.0],"alphaMode":"BLEND","name":"01 - Default"}]}