{"asset":{"version":"2.0","generator":"Babylon2Gltf2017","copyright":"2017 (c) BabylonJS"},"extensionsUsed":[],"extensionsRequired":[],"scene":0,"scenes":[{"nodes":[0,1]}],"nodes":[{"mesh":0,"translation":[0.0,0.0,0.0],"rotation":[-0.7071068,0.0,0.0,-0.7071067],"scale":[1.0,1.0,1.0],"name":"TrainPart"},{"mesh":1,"translation":[-3.36056423,1745.44775,-3.40116215],"rotation":[0.0,0.0,0.0,-1.0],"scale":[1.0,1.0,1.0],"name":"Torus001"}],"meshes":[{"primitives":[{"attributes":{"POSITION":1,"NORMAL":2,"TEXCOORD_0":3},"indices":0,"mode":4,"material":0},{"attributes":{"POSITION":5,"NORMAL":6,"TEXCOORD_0":7},"indices":4,"mode":4,"material":1},{"attributes":{"POSITION":9,"NORMAL":10,"TEXCOORD_0":11},"indices":8,"mode":4,"material":2}],"name":"TrainPart"},{"primitives":[{"attributes":{"POSITION":13,"NORMAL":14,"TEXCOORD_0":15},"indices":12,"mode":4,"material":3}],"name":"Torus001"}],"accessors":[{"bufferView":0,"componentType":5123,"count":8475,"type":"SCALAR","name":"accessorIndices"},{"bufferView":1,"componentType":5126,"count":8475,"max":[1102.36218,1102.36218,0.0],"min":[-1102.36218,-1102.36218,-1687.25061],"type":"VEC3","name":"accessorPositions"},{"bufferView":1,"byteOffset":101700,"componentType":5126,"count":8475,"type":"VEC3","name":"accessorNormals"},{"bufferView":2,"componentType":5126,"count":8475,"type":"VEC2","name":"accessorUVs"},{"bufferView":0,"byteOffset":16952,"componentType":5123,"count":987,"type":"SCALAR","name":"accessorIndices"},{"bufferView":1,"byteOffset":203400,"componentType":5126,"count":987,"max":[1089.05664,1018.11725,-39.37008],"min":[-1089.05664,-1102.36218,-354.330719],"type":"VEC3","name":"accessorPositions"},{"bufferView":1,"byteOffset":215244,"componentType":5126,"count":987,"type":"VEC3","name":"accessorNormals"},{"bufferView":2,"byteOffset":67800,"componentType":5126,"count":987,"type":"VEC2","name":"accessorUVs"},{"bufferView":0,"byteOffset":18928,"componentType":5123,"count":1560,"type":"SCALAR","name":"accessorIndices"},{"bufferView":1,"byteOffset":227088,"componentType":5126,"count":1560,"max":[196.850388,196.850388,196.850388],"min":[-196.850388,-196.850388,0.0],"type":"VEC3","name":"accessorPositions"},{"bufferView":1,"byteOffset":245808,"componentType":5126,"count":1560,"type":"VEC3","name":"accessorNormals"},{"bufferView":2,"byteOffset":75696,"componentType":5126,"count":1560,"type":"VEC2","name":"accessorUVs"},{"bufferView":0,"byteOffset":22048,"componentType":5123,"count":1728,"type":"SCALAR","name":"accessorIndices"},{"bufferView":1,"byteOffset":264528,"componentType":5126,"count":1728,"max":[1177.1228,93.510376,1177.1228],"min":[-1177.1228,-93.510376,-1177.1228],"type":"VEC3","name":"accessorPositions"},{"bufferView":1,"byteOffset":285264,"componentType":5126,"count":1728,"type":"VEC3","name":"accessorNormals"},{"bufferView":2,"byteOffset":88176,"componentType":5126,"count":1728,"type":"VEC2","name":"accessorUVs"}],"bufferViews":[{"buffer":0,"byteLength":25504,"name":"bufferViewScalar"},{"buffer":0,"byteOffset":25504,"byteLength":306000,"byteStride":12,"name":"bufferViewFloatVec3"},{"buffer":0,"byteOffset":331504,"byteLength":102000,"byteStride":8,"name":"bufferViewFloatVec2"}],"buffers":[{"uri":"trainpart.bin","byteLength":433504}],"materials":[{"pbrMetallicRoughness":{"baseColorFactor":[0.09411766,0.0,0.498039246,1.0],"metallicFactor":0.0,"roughnessFactor":0.0},"emissiveFactor":[0.0,0.0,0.0],"alphaMode":"OPAQUE","name":"Material #59"},{"pbrMetallicRoughness":{"baseColorFactor":[1.0,0.0,0.0,1.0],"metallicFactor":0.0,"roughnessFactor":0.0},"emissiveFactor":[0.0,0.0,0.0],"alphaMode":"OPAQUE","name":"Material #60"},{"pbrMetallicRoughness":{"baseColorFactor":[0.9921569,0.9176471,0.08627451,1.0],"metallicFactor":0.0,"roughnessFactor":0.0},"emissiveFactor":[0.0,0.0,0.0],"alphaMode":"OPAQUE","name":"Material #61"},{"pbrMetallicRoughness":{"baseColorFactor":[0.4964029,0.0,0.0,1.0],"metallicFactor":0.0,"roughnessFactor":0.31},"emissiveFactor":[0.0,0.0,0.0],"alphaMode":"OPAQUE","name":"02 - Default"}]}