{"asset":{"version":"2.0","generator":"Babylon2Gltf2017","copyright":"2017 (c) BabylonJS"},"extensionsUsed":[],"extensionsRequired":[],"scene":0,"scenes":[{"nodes":[0]}],"nodes":[{"mesh":0,"translation":[0.0,110.036804,0.0],"rotation":[-0.7071068,0.0,0.0,-0.7071067],"scale":[1.0,1.0,1.0],"name":"GlassTrainpart"}],"meshes":[{"primitives":[{"attributes":{"POSITION":1,"NORMAL":2,"TEXCOORD_0":3},"indices":0,"mode":4}],"name":"GlassTrainpart"}],"accessors":[{"bufferView":0,"componentType":5123,"count":17136,"type":"SCALAR","name":"accessorIndices"},{"bufferView":1,"componentType":5126,"count":17136,"max":[110.885025,110.2823,109.361],"min":[-110.885025,-110.2823,-111.840851],"type":"VEC3","name":"accessorPositions"},{"bufferView":1,"byteOffset":205632,"componentType":5126,"count":17136,"type":"VEC3","name":"accessorNormals"},{"bufferView":2,"componentType":5126,"count":17136,"type":"VEC2","name":"accessorUVs"}],"bufferViews":[{"buffer":0,"byteLength":34272,"name":"bufferViewScalar"},{"buffer":0,"byteOffset":34272,"byteLength":411264,"byteStride":12,"name":"bufferViewFloatVec3"},{"buffer":0,"byteOffset":445536,"byteLength":137088,"byteStride":8,"name":"bufferViewFloatVec2"}],"buffers":[{"uri":"trainpart.bin","byteLength":582624}]}