{"asset":{"version":"2.0","generator":"Babylon2Gltf2017","copyright":"2017 (c) BabylonJS"},"extensionsUsed":[],"extensionsRequired":[],"scene":0,"scenes":[{"nodes":[0]}],"nodes":[{"mesh":0,"translation":[0.0,0.0,0.0],"rotation":[-0.7071068,0.0,0.0,-0.7071067],"scale":[1.0,1.0,1.0],"name":"GlassTrainpart001"}],"meshes":[{"primitives":[{"attributes":{"POSITION":1,"NORMAL":2,"TEXCOORD_0":3},"indices":0,"mode":4}],"name":"GlassTrainpart001"}],"accessors":[{"bufferView":0,"componentType":5123,"count":8856,"type":"SCALAR","name":"accessorIndices"},{"bufferView":1,"componentType":5126,"count":8856,"max":[55.11811,47.7336845,55.11811],"min":[-55.11811,-55.11811,-55.11811],"type":"VEC3","name":"accessorPositions"},{"bufferView":1,"byteOffset":106272,"componentType":5126,"count":8856,"type":"VEC3","name":"accessorNormals"},{"bufferView":2,"componentType":5126,"count":8856,"type":"VEC2","name":"accessorUVs"}],"bufferViews":[{"buffer":0,"byteLength":17712,"name":"bufferViewScalar"},{"buffer":0,"byteOffset":17712,"byteLength":212544,"byteStride":12,"name":"bufferViewFloatVec3"},{"buffer":0,"byteOffset":230256,"byteLength":70848,"byteStride":8,"name":"bufferViewFloatVec2"}],"buffers":[{"uri":"trainpart.bin","byteLength":301104}]}