{"asset":{"version":"2.0","generator":"Babylon2Gltf2017","copyright":"2017 (c) BabylonJS"},"extensionsUsed":[],"extensionsRequired":[],"scene":0,"scenes":[{"nodes":[0]}],"nodes":[{"mesh":0,"translation":[0.0,0.0,0.0],"rotation":[-0.7071068,0.0,0.0,-0.7071067],"scale":[1.0,1.0,1.0],"name":"TrainPart"}],"meshes":[{"primitives":[{"attributes":{"POSITION":1,"NORMAL":2,"TEXCOORD_0":3},"indices":0,"mode":4,"material":0},{"attributes":{"POSITION":5,"NORMAL":6,"TEXCOORD_0":7},"indices":4,"mode":4,"material":1},{"attributes":{"POSITION":9,"NORMAL":10,"TEXCOORD_0":11},"indices":8,"mode":4,"material":2}],"name":"TrainPart"}],"accessors":[{"bufferView":0,"componentType":5123,"count":6267,"type":"SCALAR","name":"accessorIndices"},{"bufferView":1,"componentType":5126,"count":6267,"max":[1102.36218,1102.36218,0.0],"min":[-1102.36218,-1102.36218,-393.700775],"type":"VEC3","name":"accessorPositions"},{"bufferView":1,"byteOffset":75204,"componentType":5126,"count":6267,"type":"VEC3","name":"accessorNormals"},{"bufferView":2,"componentType":5126,"count":6267,"type":"VEC2","name":"accessorUVs"},{"bufferView":0,"byteOffset":12536,"componentType":5123,"count":987,"type":"SCALAR","name":"accessorIndices"},{"bufferView":1,"byteOffset":150408,"componentType":5126,"count":987,"max":[1089.05664,1018.11725,-39.37008],"min":[-1089.05664,-1102.36218,-354.330719],"type":"VEC3","name":"accessorPositions"},{"bufferView":1,"byteOffset":162252,"componentType":5126,"count":987,"type":"VEC3","name":"accessorNormals"},{"bufferView":2,"byteOffset":50136,"componentType":5126,"count":987,"type":"VEC2","name":"accessorUVs"},{"bufferView":0,"byteOffset":14512,"componentType":5123,"count":1560,"type":"SCALAR","name":"accessorIndices"},{"bufferView":1,"byteOffset":174096,"componentType":5126,"count":1560,"max":[196.850388,196.850388,196.850388],"min":[-196.850388,-196.850388,0.0],"type":"VEC3","name":"accessorPositions"},{"bufferView":1,"byteOffset":192816,"componentType":5126,"count":1560,"type":"VEC3","name":"accessorNormals"},{"bufferView":2,"byteOffset":58032,"componentType":5126,"count":1560,"type":"VEC2","name":"accessorUVs"}],"bufferViews":[{"buffer":0,"byteLength":17632,"name":"bufferViewScalar"},{"buffer":0,"byteOffset":17632,"byteLength":211536,"byteStride":12,"name":"bufferViewFloatVec3"},{"buffer":0,"byteOffset":229168,"byteLength":70512,"byteStride":8,"name":"bufferViewFloatVec2"}],"buffers":[{"uri":"trainpart.bin","byteLength":299680}],"materials":[{"pbrMetallicRoughness":{"baseColorFactor":[0.0,0.0,0.0,1.0],"metallicFactor":0.0,"roughnessFactor":0.0},"emissiveFactor":[0.0,0.0,0.0],"alphaMode":"OPAQUE","name":"Material #59"},{"pbrMetallicRoughness":{"baseColorFactor":[1.0,0.0,0.0,1.0],"metallicFactor":0.0,"roughnessFactor":0.0},"emissiveFactor":[0.0,0.0,0.0],"alphaMode":"OPAQUE","name":"Material #60"},{"pbrMetallicRoughness":{"baseColorFactor":[0.9921569,0.9176471,0.08627451,1.0],"metallicFactor":0.0,"roughnessFactor":0.0},"emissiveFactor":[0.0,0.0,0.0],"alphaMode":"OPAQUE","name":"Material #61"}]}