{"asset":{"version":"2.0","generator":"Babylon2Gltf2017","copyright":"2017 (c) BabylonJS"},"extensionsUsed":[],"extensionsRequired":[],"scene":0,"scenes":[{"nodes":[0]}],"nodes":[{"mesh":0,"translation":[0.0,0.0,0.0],"rotation":[-0.7071068,0.0,0.0,-0.7071067],"scale":[1.0,1.0,1.0],"name":"TrainPart"}],"meshes":[{"primitives":[{"attributes":{"POSITION":1,"NORMAL":2,"TEXCOORD_0":3},"indices":0,"mode":4,"material":0},{"attributes":{"POSITION":5,"NORMAL":6,"TEXCOORD_0":7},"indices":4,"mode":4,"material":1},{"attributes":{"POSITION":9,"NORMAL":10,"TEXCOORD_0":11},"indices":8,"mode":4,"material":2}],"name":"TrainPart"}],"accessors":[{"bufferView":0,"componentType":5123,"count":6294,"type":"SCALAR","name":"accessorIndices"},{"bufferView":1,"componentType":5126,"count":6294,"max":[1102.36218,1102.36218,0.0],"min":[-1102.36218,-1102.36218,-393.700775],"type":"VEC3","name":"accessorPositions"},{"bufferView":1,"byteOffset":75528,"componentType":5126,"count":6294,"type":"VEC3","name":"accessorNormals"},{"bufferView":2,"componentType":5126,"count":6294,"type":"VEC2","name":"accessorUVs"},{"bufferView":0,"byteOffset":12588,"componentType":5123,"count":1560,"type":"SCALAR","name":"accessorIndices"},{"bufferView":1,"byteOffset":151056,"componentType":5126,"count":1560,"max":[196.850388,196.850388,196.850388],"min":[-196.850388,-196.850388,0.0],"type":"VEC3","name":"accessorPositions"},{"bufferView":1,"byteOffset":169776,"componentType":5126,"count":1560,"type":"VEC3","name":"accessorNormals"},{"bufferView":2,"byteOffset":50352,"componentType":5126,"count":1560,"type":"VEC2","name":"accessorUVs"},{"bufferView":0,"byteOffset":15708,"componentType":5123,"count":960,"type":"SCALAR","name":"accessorIndices"},{"bufferView":1,"byteOffset":188496,"componentType":5126,"count":960,"max":[1089.05664,1018.11725,-39.37008],"min":[-1089.05664,-1090.39441,-354.330719],"type":"VEC3","name":"accessorPositions"},{"bufferView":1,"byteOffset":200016,"componentType":5126,"count":960,"type":"VEC3","name":"accessorNormals"},{"bufferView":2,"byteOffset":62832,"componentType":5126,"count":960,"type":"VEC2","name":"accessorUVs"}],"bufferViews":[{"buffer":0,"byteLength":17628,"name":"bufferViewScalar"},{"buffer":0,"byteOffset":17628,"byteLength":211536,"byteStride":12,"name":"bufferViewFloatVec3"},{"buffer":0,"byteOffset":229164,"byteLength":70512,"byteStride":8,"name":"bufferViewFloatVec2"}],"buffers":[{"uri":"TrainPart.bin","byteLength":299676}],"materials":[{"pbrMetallicRoughness":{"baseColorFactor":[0.0,0.0,0.0,1.0],"metallicFactor":0.0,"roughnessFactor":0.255953282},"emissiveFactor":[0.0,0.0,0.0],"alphaMode":"OPAQUE","name":"01 - Default"},{"pbrMetallicRoughness":{"baseColorFactor":[0.5438849,0.47117275,0.0,1.0],"metallicFactor":0.0,"roughnessFactor":0.459999979},"emissiveFactor":[0.0,0.0,0.0],"alphaMode":"OPAQUE","name":"03 - Default"},{"pbrMetallicRoughness":{"baseColorFactor":[1.0,0.0,0.0,1.0],"metallicFactor":0.0,"roughnessFactor":0.31},"emissiveFactor":[0.0,0.0,0.0],"alphaMode":"OPAQUE","name":"02 - Default"}]}